Release Name: Pirates Of The Caribbean On Stranger Tides.3D Anaglyph.BRRip.720p.Dual Audio [6ch][Eng-Hind]~Harshad
Release Date: 20 May 2011 (USA)/(India)
Release Length: 2hr 16mn
Tagline : Unexpected Adventure On Stranger Tides.
Storyline:Captain Jack Sparrow (Depp) crosses paths with a woman from his
past (Cruz), and he's not sure if it's love -- or if she's a ruthless
con artist who's using him to find the fabled Fountain of Youth. When
she forces him aboard the Queen Anne's Revenge, the ship of the
formidable pirate Blackbeard (McShane), Jack finds himself on an
unexpected adventure in which he doesn't know who to fear more:
Blackbeard or the woman from his past.


cast

Johnny Depp ... Jack Sparrow
Penélope Cruz ... Angelica Malon
Geoffrey Rush ... Barbossa
Ian McShane ... Blackbeard
Kevin McNally ... Joshamee Gibbs
Sam Claflin ... Philip
Astrid Bergès-Frisbey...Syrena
Stephen Graham ... Scrum
Keith Richards ... Captain Teague
Richard Griffiths... King George
Greg Ellis ... Groves
Damian O'Hare ... Gillette
Óscar Jaenada ... The Spaniard
Anton Lesser ... Lord John Carteret
Roger Allam ... Prime Minister Henry Pelham

Info

Genre Action | Adventure | Fantasy
Language English, Hindi 
Original Source: Blu Ray
Total Size: 4.10 GB 
Encoder: Harshad (HD Desi Rockers)

General
Complete name                    : Pirates Of The Caribbean On Stranger Tides.3D Anaglyph.BRRip.720p.Dual Audio [6ch][Eng-Hind]~Harshad.mkv
Format                           : Matroska
File size                        : 4.11 GiB
Duration                         : 2h 16mn
Overall bit rate                 : 4 311 Kbps
Encoded date                     : UTC 2011-09-16 16:04:42
Writing application              : mkvmerge v4.8.0 ('I Got The...') built on May 24 2011 03:12:58
Writing library                  : libebml v1.2.0 + libmatroska v1.1.0

Video
ID                               : 1
Format                           : MPEG-4 Visual
Format profile                   : Advanced Simple@L5
Format settings, BVOP            : Yes
Format settings, QPel            : No
Format settings, GMC             : No warppoints
Format settings, Matrix          : Default (MPEG)
Codec ID                         : XVID
Codec ID/Hint                    : XviD
Duration                         : 2h 16mn
Bit rate                         : 2 945 Kbps
Width                            : 1 280 pixels
Height                           : 536 pixels
Display aspect ratio             : 2.35:1
Frame rate                       : 23.976 fps
Color space                      : YUV
Chroma subsampling               : 4:2:0
Bit depth                        : 8 bits
Scan type                        : Progressive
Bits/(Pixel*Frame)               : 0.179
Stream size                      : 2.81 GiB (68%)
Writing library                  : XviD 1.2.1 (UTC 2008-12-04)


Audio #1
ID                               : 2
Format                           : AC-3
Format/Info                      : Audio Coding 3
Mode extension                   : CM (complete main)
Codec ID                         : A_AC3
Duration                         : 2h 16mn
Bit rate mode                    : Constant
Bit rate                         : 640 Kbps
Channel(s)                       : 6 channels
Channel positions                : Front: L C R, Side: L R, LFE
Sampling rate                    : 48.0 KHz
Stream size                      : 624 MiB (15%)
Title                            : Eng 6ch - Harshad


Audio #2
ID                               : 3
Format                           : AC-3
Format/Info                      : Audio Coding 3
Mode extension                   : CM (complete main)
Codec ID                         : A_AC3
Duration                         : 2h 16mn
Bit rate mode                    : Constant
Bit rate                         : 640 Kbps
Channel(s)                       : 6 channels
Channel positions                : Front: L C R, Side: L R, LFE
Sampling rate                    : 48.0 KHz
Stream size                      : 624 MiB (15%)
Title                            : Hindi AC3 6ch - Harshad
Language                         : Hindi


Screenshots

 
http://www.pix2links.com/images/81630659414529362525.jpg 
http://www.pix2links.com/images/08318813932614826198.jpg 
http://www.pix2links.com/images/80451805862219440419.jpg 
http://www.pix2links.com/images/25427082532839377051.jpg 
http://www.pix2links.com/images/33626050173339321493.jpg 
http://www.pix2links.com/images/23446753989135016971.jpg 
http://www.pix2links.com/images/70270652136362230852.jpg